<svg width="106" height="125" viewBox="0 0 106 125" fill="none" xmlns="http://www.w3.org/2000/svg">
<path d="M51.5678 20.2297C56.24 20.1559 60.9311 20.4856 65.6042 20.5851C70.93 20.6986 76.3726 20.5701 81.6761 21.0985C83.1204 21.2425 85.6972 21.4496 87.005 21.8991C87.5419 22.0835 88.8311 23.2526 89.1655 23.2703C89.221 23.2733 89.2809 23.2634 89.3357 23.2557C89.3934 23.2475 89.451 23.2379 89.5085 23.2269C89.5538 23.2183 89.5991 23.2091 89.6442 23.1996C90.6917 23.4858 92.2558 25.9902 92.7906 26.9216C94.4405 29.7955 95.5449 33.1705 94.637 36.4873C94.387 37.4013 94.0216 38.3826 93.4585 39.1526C92.2149 40.8532 84.1106 48.3614 82.2987 49.586C86.5969 50.1237 90.0553 51.3298 92.8143 54.8877C95.1006 57.8367 96.2451 61.1887 95.7646 64.9392C95.5043 66.9717 95.1415 69.2365 94.0587 71.0075C93.6437 71.6861 93.1663 72.3518 92.6251 72.9361C91.84 73.7837 90.9209 74.5119 90.0936 75.3185C87.5651 77.8174 84.9941 80.272 82.3806 82.6821L78.2022 86.614C77.1633 87.6077 76.1417 88.6724 75.0011 89.5506C73.702 90.5511 68.7118 93.8599 67.4975 94.2085C66.5177 94.4899 65.4266 94.6088 64.4209 94.7764C58.5823 95.7511 52.7803 95.6322 46.8852 95.649C43.32 95.6589 39.7223 95.764 36.1601 95.6443C34.6519 95.5934 33.173 95.2582 31.6668 95.2397C30.3246 95.2233 28.9839 95.3607 27.6432 95.4081C25.7151 95.4758 23.8025 95.384 21.8764 95.3064C20.8672 95.2659 19.7994 95.2853 18.8002 95.1479C18.5547 95.1143 18.3442 95.0854 18.1225 94.9686C17.8563 94.4171 17.7739 93.5342 17.982 92.955C18.0457 92.778 18.1025 92.7508 18.2453 92.6375C19.7389 92.2691 21.6068 92.5961 23.1468 92.5716C25.3049 92.5367 27.4439 92.5672 29.6007 92.572C30.4327 92.5737 31.2669 92.5095 32.0986 92.5336C35.0666 92.6207 38.0392 92.8279 41.0107 92.8887C42.795 92.9253 44.583 92.7254 46.3574 92.7754C47.1748 92.7982 47.9892 92.8986 48.807 92.9197C49.5538 92.9391 50.3044 92.8844 51.0498 92.9309C51.8884 92.9831 52.7295 93.1683 53.5671 93.177C54.7129 93.1886 58.0165 92.4388 58.7822 92.6754C58.9412 92.8534 58.9615 92.9744 58.9925 93.208L59.1373 93.2709C59.529 92.949 59.1843 92.5354 59.9383 92.5884C60.2292 92.6086 60.495 92.7749 60.7945 92.7715C62.1941 92.7551 63.5419 91.7636 64.8074 91.3021C65.2245 91.1496 65.3348 91.5801 65.755 91.1953C66.0316 90.9415 66.0484 90.5196 66.3423 90.2094C69.0099 87.3935 69.5546 86.4343 69.5111 82.4119C69.5105 82.1462 69.4966 81.8812 69.4693 81.6169C69.4423 81.3526 69.4021 81.0904 69.3486 80.8301C69.2955 80.5699 69.2294 80.3129 69.1504 80.0592C69.0714 79.8056 68.9799 79.5565 68.8759 79.3121C68.7722 79.0676 68.6565 78.8289 68.5286 78.5959C68.4011 78.363 68.2622 78.1369 68.112 77.9177C67.9617 77.6985 67.8009 77.4875 67.6294 77.2847C67.4582 77.0816 67.2772 76.8876 67.0864 76.7026C63.9327 73.6342 54.5905 72.4639 50.2979 72.2381C48.2542 72.1308 46.1432 72.2131 44.0943 72.2501C43.7852 72.2562 43.4763 72.2652 43.1675 72.2773C43.1571 72.2015 43.1524 72.1347 43.1705 72.0593C43.205 71.9179 43.2653 71.7563 43.2666 71.6107C43.2696 71.3315 43.0831 71.1333 42.905 70.9428C42.8884 70.9514 42.8706 70.9588 42.8552 70.9695C42.6304 71.1264 42.557 71.4185 42.4896 71.668C42.5448 71.8602 42.5795 72.03 42.5857 72.2303L42.5868 72.2855C40.3689 72.2609 38.1502 72.1523 35.9339 72.1437C33.2627 72.1334 19.9144 72.3816 18.2356 71.749C18.167 70.814 22.166 65.8195 22.9999 64.8556C23.5854 64.1791 24.3057 63.6629 24.8809 63.0161C27.7465 62.6847 30.6823 62.7834 33.5639 62.7791C39.4661 62.7709 45.3655 62.9519 51.264 62.8049C53.2918 62.7545 55.3911 62.9071 57.3926 62.599C59.4656 62.2797 62.8033 61.2899 64.1275 59.6258C64.9221 58.627 65.7097 57.3304 65.8532 56.0438C65.901 55.6142 65.8334 55.185 65.8735 54.7589C65.9174 54.2931 66.0773 53.9285 66.0226 53.4408C65.7821 51.3005 64.7467 49.2227 63.0317 47.8986C59.0619 44.8332 35.9625 45.5304 29.678 45.0693C28.1749 44.959 26.7668 44.5471 25.293 44.2674C26.5908 42.0967 34.0111 36.3844 36.2763 34.3023C36.7781 33.8411 36.9305 33.2007 37.4135 32.7347C39.7397 30.4906 42.3461 28.4654 44.7596 26.3073C46.6246 24.6395 48.3736 22.9048 50.2988 21.2935C50.7193 20.9416 51.0891 20.4968 51.5678 20.2297ZM49.4387 40.7597C49.144 40.6469 48.8488 40.4895 48.5291 40.5482C48.0086 41.0231 48.0879 41.647 47.7143 42.1635C47.4286 42.5583 46.9163 42.7446 46.7474 43.2254L46.7922 43.478C47.0511 43.5629 47.0684 43.5358 47.3252 43.4324C48.0637 42.4159 47.4743 42.3228 48.8954 41.2673C49.1087 41.3857 49.3021 41.478 49.5352 41.5516L49.83 41.3741C49.7145 41.1628 49.5697 40.9618 49.4387 40.7597ZM52.8954 71.4879C52.689 71.216 52.5248 70.9639 52.1986 70.8295C51.8289 70.8166 51.5997 71.0941 51.2442 71.0988C50.8637 71.1031 50.6793 70.7825 50.2561 70.8247C50.2734 71.1259 50.257 71.2134 50.4561 71.4551C51.1317 71.6637 52.1667 71.7977 52.8333 71.5129C52.854 71.5043 52.8747 71.4961 52.8954 71.4879ZM53.1143 39.3311L53.3568 39.2152C53.353 38.7 53.2944 38.1829 53.4943 37.6933L53.4198 37.5053L53.2931 37.5262C52.9544 37.7041 52.5235 37.8097 52.3188 38.1405C52.3542 38.6214 52.7945 38.9845 53.1143 39.3311ZM33.0501 69.4515C33.0564 69.4286 33.0616 69.4054 33.069 69.383C33.2327 68.884 33.7448 68.8107 34.026 68.41C33.6081 68.3109 33.1832 68.3544 32.7793 68.2316C32.7757 68.2639 32.7724 68.2963 32.7685 68.3281C32.699 68.8948 32.2972 69.311 32.2583 69.8544L32.365 69.9229C32.641 69.794 32.832 69.6643 33.0501 69.4515ZM78.0256 56.2778C77.9855 56.0494 77.9519 55.8318 77.8627 55.6159L77.9962 55.4017C78.3466 55.3772 78.5288 55.6784 78.8055 55.4703C78.8714 55.2126 78.8891 55.1975 78.7762 54.9601C78.5616 54.8713 78.3651 54.8015 78.1363 54.7606C77.7381 55.032 77.3615 55.556 77.2767 56.0399C77.2426 56.2334 77.3055 56.2829 77.3995 56.448L77.3219 56.3161L77.7817 56.435L77.7562 56.4596L78.0256 56.2778ZM81.7929 45.0836C82.2854 44.844 82.7822 44.6104 83.2588 44.3403C82.9201 43.974 82.5732 43.612 82.2587 43.2245C82.2436 43.6086 82.3035 44.2649 82.0979 44.5867C81.8691 44.6544 81.6739 44.6626 81.4365 44.6574L81.2719 44.8242C81.374 45.0422 81.43 45.0262 81.6459 45.1133L81.7929 45.0836ZM93.0806 69.1882C93.524 68.8525 94.1074 68.5384 94.2061 67.9619C93.9876 67.9089 93.8825 67.9334 93.673 68.0089C93.6519 68.0192 93.6308 68.03 93.6097 68.0399C93.2154 68.2256 92.782 68.0532 92.5639 68.5091C92.6475 68.8095 92.8423 68.9986 93.0806 69.1882ZM91.3273 71.5581C91.7215 71.1565 92.3075 70.6834 92.3976 70.1039C92.2705 69.8949 92.2515 69.8992 92.018 69.8177C91.6362 70.2068 91.1515 70.8734 91.0196 71.4086L91.0911 71.5663L91.3273 71.5581ZM40.6952 69.6954C41.2949 69.3386 41.7775 68.7629 42.1487 68.1773L42.1323 67.977L42.0125 67.9149C41.5896 68.3738 40.6022 68.9542 40.5298 69.5635L40.6952 69.6954ZM43.847 38.2402C43.6738 38.4388 43.5398 38.5121 43.5531 38.7903L44.2408 39.0634C44.3593 38.804 44.4158 38.7313 44.3611 38.4413C44.1831 38.3007 44.0737 38.2561 43.847 38.2402ZM71.6759 28.4424C71.8418 28.1772 71.956 28.1001 71.9021 27.7849L71.5785 27.5989C71.3962 27.8205 71.226 27.9258 71.2441 28.2218C71.3855 28.3084 71.516 28.3934 71.6759 28.4424ZM23.1132 70.8235C22.8924 71.0023 22.7733 71.0665 22.6776 71.3423C22.9218 71.5637 23.0601 71.5736 23.3758 71.6495C23.589 71.4616 23.7384 71.4077 23.7703 71.1139C23.5706 70.9372 23.3633 70.8898 23.1132 70.8235ZM38.8995 40.759L38.7776 41.1391L38.8812 41.3393L39.4594 41.4825C39.509 41.2217 39.5672 41.1117 39.4421 40.8681C39.2613 40.8224 39.0858 40.7737 38.8995 40.759ZM30.0132 70.0259L30.2398 69.5545L30.1643 69.3632L29.847 69.2261C29.7268 69.5058 29.6245 69.6032 29.7227 69.8983L30.0132 70.0259ZM43.504 69.1731L43.6178 68.8607C43.4764 68.588 43.3558 68.5513 43.0951 68.4061C42.9767 68.6638 42.8452 68.8034 42.9317 69.0831C43.1244 69.1249 43.3071 69.1598 43.504 69.1731ZM41.6058 39.8179C41.6681 39.5577 41.7201 39.3829 41.6031 39.1256C41.4121 38.9534 41.2738 38.918 41.0218 38.8841C40.9387 39.1852 40.8549 39.296 40.985 39.5869C41.1904 39.6776 41.387 39.763 41.6058 39.8179ZM62.0919 63.5138C62.1777 63.1501 62.3035 62.8644 62.1863 62.5012C62.0019 62.4171 61.8649 62.3909 61.6628 62.3874C61.6236 62.727 61.6128 62.9355 61.7545 63.2526C61.8636 63.353 61.9545 63.4547 62.0919 63.5138ZM60.5567 24.1507L60.5941 23.9326C60.308 23.7278 59.8664 23.7181 59.5234 23.6716C59.5863 24.0026 59.5591 24.1031 59.825 24.3235C60.1081 24.307 60.2973 24.2588 60.5567 24.1507ZM55.3928 26.9347C55.3864 27.2653 55.3398 27.4396 55.5143 27.726L55.9099 27.9423C55.9168 27.5952 55.9616 27.394 55.7927 27.0862L55.3928 26.9347ZM51.4088 63.5918C51.4299 63.9244 51.4484 64.0222 51.6363 64.3135C51.919 64.4484 51.9612 64.4742 52.2675 64.4298C52.2749 64.1631 52.2891 64.0153 52.0676 63.8193C51.8948 63.6667 51.6324 63.6055 51.4088 63.5918ZM71.7914 41.581C71.7414 41.9559 71.6694 42.2789 71.8461 42.6308C72.0047 42.7772 72.1421 42.9085 72.3438 42.996C72.4088 42.6407 72.5023 42.2567 72.2895 41.9307C72.1723 41.7511 71.9788 41.6678 71.7914 41.581ZM48.7519 71.6391C48.9738 71.6185 49.3146 71.6189 49.5059 71.5013C49.6964 71.384 49.7016 71.3306 49.7632 71.1294L49.5663 70.9385C49.1763 70.786 48.8337 70.9613 48.4627 71.0953L48.3886 71.0915C47.657 71.0441 47.0878 70.7601 46.3759 71.213L46.3957 71.5525C47.1558 71.8412 47.9612 71.8012 48.7519 71.6391ZM83.413 73.8376C83.0136 74.1276 82.6447 74.2896 82.1798 74.4481C82.1626 74.5808 82.1647 74.5877 82.2285 74.7054C82.5866 74.6145 83.3087 74.6114 83.5763 74.4063C83.5837 74.1362 83.5453 74.078 83.413 73.8376ZM89.0457 34.2882C88.8905 34.8985 89.2659 35.3452 88.7303 35.7562C88.8815 35.8948 89.081 35.9282 89.2736 35.9814C89.5029 35.6908 89.6731 35.3555 89.6209 34.9729C89.5938 34.7737 89.5093 34.5827 89.3464 34.4578C89.256 34.388 89.1487 34.3369 89.0457 34.2882Z" fill="#FEFEFE"/>
<path d="M70.7824 64.9152L70.7859 64.5718C70.8617 64.5218 70.9475 64.433 71.0384 64.4498C71.4727 64.5291 71.7778 64.8919 72.0307 65.2276C72.4035 65.2384 72.8326 65.1664 73.1536 65.3508C73.1118 65.6417 72.4616 66.1196 72.2087 66.3104C72.1489 66.3555 72.0885 66.3995 72.0273 66.4423C71.9247 66.5401 71.823 66.6612 71.6916 66.7181L71.5374 66.8797C71.4964 67.1912 71.3534 67.3683 71.1138 67.5557C70.7363 67.8513 69.7983 68.7015 69.3889 68.7877C69.0352 68.9505 68.4349 69.1768 68.2733 69.5658C68.2548 69.6098 68.2509 69.6292 68.2397 69.6718C68.3268 69.7494 68.3828 69.8054 68.4978 69.8326L68.8408 70.0838C68.7805 70.2665 68.681 70.3682 68.5508 70.5065L68.7223 70.9008C68.4224 71.4467 68.1583 71.7716 67.6072 72.0771L67.3805 72.087C67.2706 71.9073 67.2702 71.903 67.3219 71.7014C67.3508 71.5898 67.3995 71.5156 67.462 71.4204C67.6438 70.7836 67.7756 70.2027 67.8799 69.5465L67.9131 69.5831C67.9799 69.3728 67.9407 69.3362 67.8679 69.135L67.4727 69.0479C67.0655 69.5012 66.514 69.7722 66.0943 70.1954C65.806 70.4854 65.75 70.9081 65.3661 71.1214C65.2079 71.2093 65.1998 71.1843 65.0274 71.1326L64.9766 70.8706C65.0959 70.4513 65.61 70.3285 65.8702 70.0123C66.0094 69.8429 66.009 69.83 65.9935 69.6107C65.6966 69.549 65.4574 69.7024 65.1782 69.8097L65.0261 69.7257L65.0537 69.5077C65.3523 69.1255 65.8504 68.8419 66.2442 68.5606C66.514 67.9858 68.2423 66.6103 68.8387 66.2928C68.9283 66.2072 69.0189 66.1227 69.1106 66.0394C69.3527 65.8201 69.669 65.5051 70.018 65.5228C70.1736 65.5073 70.3808 65.5055 70.52 65.431C70.6932 65.3383 70.7243 65.0932 70.7824 64.9152Z" fill="#FEFEFE"/>
<path d="M70.7821 64.9152L70.7856 64.5718C70.8614 64.5218 70.9472 64.433 71.0381 64.4498C71.4724 64.5291 71.7775 64.8919 72.0304 65.2276C72.4032 65.2384 72.8323 65.1664 73.1534 65.3508C73.1116 65.6417 72.4613 66.1196 72.2084 66.3104C72.1487 66.3555 72.0882 66.3995 72.027 66.4423C71.9244 66.5401 71.8228 66.6612 71.6913 66.7181L71.5371 66.8797C71.4961 67.1912 71.3531 67.3683 71.1135 67.5557C70.736 67.8513 69.798 68.7015 69.3886 68.7877C69.4119 68.7036 69.396 68.7204 69.4442 68.6657C69.6273 68.4593 69.7894 68.3391 69.857 68.0573L69.754 67.9112C69.5061 67.9081 69.2582 67.9032 69.0103 67.8966L68.9457 67.71C69.106 67.5075 69.2447 67.3088 69.38 67.0886L69.2374 66.8094C69.0448 66.6702 68.9552 66.4936 68.8384 66.2928C68.928 66.2072 69.0186 66.1227 69.1103 66.0394C69.3524 65.8201 69.6687 65.5051 70.0177 65.5228C70.1733 65.5073 70.3805 65.5055 70.5197 65.431C70.6929 65.3383 70.724 65.0932 70.7821 64.9152Z" fill="#FEFEFE"/>
<path d="M70.782 64.9152L70.7854 64.5718C70.8613 64.5218 70.947 64.433 71.0379 64.4498C71.4723 64.5291 71.7773 64.8919 72.0303 65.2276C72.403 65.2384 72.8322 65.1664 73.1532 65.3508C73.1114 65.6417 72.4612 66.1196 72.2082 66.3104C72.1485 66.3555 72.088 66.3995 72.0268 66.4423C71.9243 66.5401 71.8226 66.6612 71.6912 66.7181C71.2383 66.4526 71.1237 66.0722 70.7514 65.7322C70.4937 65.6839 70.2623 65.6124 70.0176 65.5228C70.1731 65.5073 70.3804 65.5055 70.5196 65.431C70.6928 65.3383 70.7238 65.0932 70.782 64.9152Z" fill="#FEFEFE"/>
<path d="M72.0304 65.2275C72.4031 65.2383 72.8323 65.1663 73.1533 65.3507C73.1115 65.6416 72.4613 66.1195 72.2084 66.3103C72.1486 66.3555 72.0882 66.3994 72.027 66.4422L71.9473 65.5899L72.0304 65.2275Z" fill="#FEFEFE"/>
<path d="M70.7822 64.9152L70.7857 64.5718C70.8615 64.5218 70.9473 64.433 71.0382 64.4498C71.4725 64.5291 71.7776 64.8919 72.0305 65.2276L71.9474 65.59C71.591 65.2522 71.2286 65.0958 70.7822 64.9152Z" fill="#FEFEFE"/>
<path d="M68.8384 66.2927C68.928 66.2071 69.0186 66.1226 69.1103 66.0393C69.3524 65.82 69.6687 65.505 70.0177 65.5227C70.2625 65.6123 70.4939 65.6838 70.7516 65.7321C71.1238 66.0721 71.2385 66.4526 71.6913 66.718L71.5371 66.8796C71.3199 67.0446 71.1949 67.3096 70.9847 67.4634C70.7955 67.6017 70.6572 67.5617 70.446 67.5276C70.3586 67.1635 70.6891 66.6495 70.6761 66.2225C70.5327 65.9859 70.487 65.9941 70.2211 65.8993C69.8505 66.013 69.4955 66.5232 69.2374 66.8093C69.0448 66.6702 68.9552 66.4935 68.8384 66.2927Z" fill="#FEFEFE"/>
<path d="M66.2442 68.5605C66.2498 68.5748 66.2563 68.589 66.2615 68.6036C66.3352 68.7992 66.3334 68.9673 66.3274 69.1737L66.4571 69.3236C67.1465 68.9617 67.7644 68.0064 68.5698 67.95L68.6413 68.0917C68.4108 68.5575 67.9144 68.8109 67.4727 69.0479C67.0655 69.5012 66.514 69.7722 66.0943 70.1953C65.806 70.4853 65.75 70.908 65.3661 71.1213C65.2079 71.2092 65.1998 71.1842 65.0274 71.1325L64.9766 70.8706C65.0959 70.4513 65.61 70.3285 65.8702 70.0122C66.0094 69.8429 66.009 69.8299 65.9935 69.6106C65.6966 69.549 65.4574 69.7024 65.1782 69.8097L65.0261 69.7257L65.0537 69.5076C65.3523 69.1254 65.8504 68.8419 66.2442 68.5605Z" fill="#FEFEFE"/>
<path d="M68.4976 69.8325L68.8406 70.0837C68.7802 70.2664 68.6807 70.3681 68.5506 70.5064C68.3468 70.5974 68.1395 70.7064 67.9254 70.7684L67.8965 70.135C68.0628 69.8898 68.2171 69.9066 68.4976 69.8325Z" fill="#FEFEFE"/>
<path d="M70.1883 72.4195C70.2374 72.367 70.2779 72.3148 70.3154 72.2528C70.4688 71.9994 70.477 71.5129 70.4132 71.2307C69.8539 71.0489 69.657 71.6788 69.1205 71.6935L69.0977 71.5405C69.4338 71.0084 69.9073 70.4805 70.4994 70.2284C70.7333 70.1285 70.8527 70.1173 71.0802 70.2185L71.222 70.6443C71.2422 71.0032 71.2388 71.3496 71.2172 71.7081C71.3999 71.5651 71.6137 71.3035 71.8209 71.2217C71.5046 71.8857 71.5762 72.0985 71.599 72.7867C71.5654 72.9978 71.5594 73.0288 71.6473 73.2219C71.5133 73.4839 71.3711 73.6131 71.1431 73.7859L70.8949 73.8105C70.6049 74.1832 70.1465 74.5464 69.7182 74.7459C69.4148 74.8873 69.0468 75.0019 68.7211 74.883C68.647 74.7985 68.5884 74.7718 68.5836 74.6542C68.5677 74.247 68.8689 73.9479 69.1209 73.6709C69.217 73.4322 69.1296 72.9888 69.1196 72.7212C69.3226 72.4885 69.8733 72.4747 70.1883 72.4195Z" fill="#FEFEFE"/>
<path d="M70.1883 72.4195C70.2374 72.367 70.2779 72.3148 70.3154 72.2528C70.4688 71.9994 70.477 71.5129 70.4132 71.2307C69.8539 71.0489 69.657 71.6788 69.1205 71.6935L69.0977 71.5405C69.4338 71.0084 69.9073 70.4805 70.4994 70.2284C70.7333 70.1285 70.8527 70.1173 71.0802 70.2185L71.222 70.6443L71.2026 70.6852C70.7773 71.5836 71.2009 72.775 70.0124 73.2667C69.9207 73.3046 69.8336 73.3175 69.7354 73.3188C69.6651 73.1861 69.6354 73.1732 69.6807 73.0275C69.7591 72.7742 69.9982 72.5932 70.1883 72.4195Z" fill="#FEFEFE"/>
<path d="M69.1209 73.671C69.13 73.6848 69.139 73.6986 69.1477 73.7128C69.2778 73.9325 69.2877 74.1475 69.3097 74.3949L69.432 74.5203C69.9913 74.3544 69.9926 73.6111 70.7364 73.6244L70.8949 73.8106C70.6049 74.1833 70.1465 74.5466 69.7182 74.7461C69.4148 74.8874 69.0468 75.002 68.7211 74.8831C68.647 74.7986 68.5884 74.7719 68.5836 74.6543C68.5677 74.2471 68.8689 73.948 69.1209 73.671Z" fill="#FEFEFE"/>
<path d="M88.5157 60.6617C88.3429 60.4226 88.2993 60.2356 88.2382 59.9508C87.7762 59.9585 87.3566 60.4368 86.8981 60.6023C86.5516 60.5726 86.4521 60.4756 86.1694 60.283C87.6151 59.1958 89.159 58.8429 90.7399 58.0734C90.9877 58.1414 91.0067 58.1518 91.1665 58.353C91.0821 58.6852 90.2422 59.5182 89.9622 59.9146C89.1081 61.0517 87.862 61.7653 87.0006 63.0739C86.7451 63.0812 86.6788 63.0041 86.478 62.8714C86.4245 62.74 86.3495 62.6572 86.4129 62.5206C86.5172 62.2961 86.8761 62.1936 87.0631 62.0359C87.5565 61.6196 88.0654 61.1245 88.5157 60.6617Z" fill="#FEFEFE"/>
<path d="M63.0923 40.633L63.3039 40.6071C63.5697 40.806 63.6167 41.5243 63.8675 41.6118C64.4031 41.7987 65.002 41.4847 65.5109 41.9367C65.5057 42.1408 65.4622 42.1584 65.3368 42.3118C64.5767 42.4611 64.0657 41.9179 63.3999 41.9048C63.1543 41.9 62.873 42.2869 62.6993 42.4575L62.4697 42.454C62.2757 42.2578 62.3188 42.1083 62.3068 41.8464L62.1736 41.7492C61.8069 41.7417 61.5368 41.8702 61.208 42.0153L60.9701 41.9564C60.7767 42.1734 60.9042 42.4041 60.9012 42.6846C60.8982 42.9461 60.8809 43.12 60.6922 43.3044C60.631 43.2884 60.5664 43.2754 60.5151 43.2349C60.2225 43.0022 60.2811 42.7214 60.2583 42.3807L60.1295 42.3905L59.7231 42.8714L59.5684 42.8718L59.437 42.6843L59.4805 42.4677C59.9196 42.0487 60.3432 41.0352 60.8275 40.7876C61.4303 40.4792 62.2865 41.1709 63.0328 40.6753C63.0531 40.6618 63.0725 40.6471 63.0923 40.633Z" fill="#FEFEFE"/>
<path d="M77.9953 72.4291C78.633 71.9293 80.4285 70.2936 81.0839 70.1445C81.0753 70.4651 80.9934 70.5978 80.7603 70.8215C80.2083 71.3519 79.5947 71.7307 79.175 72.3908C79.615 72.2111 80.176 71.7905 80.6284 71.7526C79.9338 72.486 79.0971 73.509 78.072 73.7485C77.9588 73.7313 77.846 73.7119 77.7337 73.6904C77.4454 73.6335 77.3442 73.5723 77.186 73.3392C77.2571 72.988 77.7298 72.6635 77.9953 72.4291Z" fill="#FEFEFE"/>
<path d="M78.072 73.7484C77.9588 73.7311 77.846 73.7117 77.7337 73.6902C77.4454 73.6333 77.3442 73.5721 77.186 73.339C77.2571 72.9878 77.7298 72.6634 77.9953 72.429C78.1258 72.5604 78.2521 72.6802 78.4007 72.7913C78.3977 73.0999 78.1013 73.3506 78.072 73.7484Z" fill="#FEFEFE"/>
<path d="M73.5643 71.0623C74.2218 70.4927 74.8488 70.0389 75.624 69.6356C74.7898 70.6008 73.8728 71.479 73.0054 72.4132C72.6172 72.9983 72.3194 73.0737 71.6477 73.222C71.5598 73.0289 71.5658 72.9979 71.5994 72.7868C71.5766 72.0986 71.505 71.8858 71.8213 71.2217C72.0829 71.0688 72.3789 70.8671 72.6706 70.784C72.9895 70.6926 73.298 70.9098 73.5643 71.0623Z" fill="#FEFEFE"/>
<path d="M73.5638 71.0623C74.2214 70.4927 74.8483 70.0389 75.6235 69.6356C74.7893 70.6008 73.8724 71.479 73.005 72.4132L72.5693 72.0073C72.9034 71.695 73.2349 71.38 73.5638 71.0623Z" fill="#FEFEFE"/>
<path d="M71.5995 72.7867C71.8947 72.4739 72.2135 72.2459 72.5699 72.0072L73.0055 72.4131C72.6173 72.9983 72.3195 73.0737 71.6478 73.2219C71.5599 73.0289 71.5659 72.9978 71.5995 72.7867Z" fill="#FEFEFE"/>
<path d="M60.6581 67.4768C61.3833 67.5531 60.9925 68.0564 61.2627 68.545C61.3937 68.7812 61.6996 68.9919 61.9069 69.1621L62.1917 69.0949C62.2119 68.5881 61.9426 68.1258 61.9991 67.6104L62.1762 67.5781C62.5321 67.7337 62.7781 67.9482 63.0616 68.2098C63.3228 67.8939 63.5399 67.6096 63.9355 67.4639C63.9618 67.454 63.9889 67.4454 64.0156 67.4359C64.0286 67.4816 64.035 67.5001 64.0432 67.5518C64.0764 67.7651 64.1014 67.897 63.9872 68.0848C63.7709 68.4395 62.249 69.2151 61.7078 69.908C61.0847 69.4193 60.5965 68.7674 59.9976 68.2408C60.2315 68.0017 60.4418 67.7324 60.6581 67.4768Z" fill="#FEFEFE"/>
<path d="M77.4262 57.8756C77.6442 57.9088 77.689 57.9161 77.8575 58.0553C77.9635 59.1528 73.923 61.954 73.0992 63.0222C73.0074 63.036 72.9113 63.0063 72.8199 62.9895C72.7962 62.5008 76.4752 59.2894 77.0677 58.5586C77.2099 58.3832 77.3086 58.082 77.4262 57.8756Z" fill="#FEFEFE"/>
<path d="M39.0561 35.2367C39.0704 35.2374 39.0848 35.2369 39.099 35.2387C39.5698 35.2991 40.2576 35.3931 40.5778 35.775C40.5768 35.9565 40.6017 36.0033 40.4737 36.145C40.0771 36.584 39.4592 36.5273 38.9126 36.5564C38.4779 36.3585 38.0442 36.5675 37.6114 36.6933L37.4888 36.5633L37.525 36.3422C37.9265 35.8084 38.4223 35.4466 39.0561 35.2367Z" fill="#FEFEFE"/>
<path d="M78.4018 59.3893C78.7983 59.1493 79.2201 59.198 79.5803 59.0041C79.9655 58.7964 81.6624 57.0931 82.0959 56.6967L82.2333 57.6145C80.705 58.2078 79.579 59.6896 78.4535 60.8117C78.3893 60.6997 78.3962 60.5799 78.3906 60.4545C78.4906 60.3093 78.641 60.1274 78.6742 59.9525C78.7172 59.7267 78.5276 59.5625 78.4018 59.3893Z" fill="#FEFEFE"/>
<path d="M75.624 78.5779C75.7886 78.3909 75.9817 78.0901 76.2337 78.0397C76.3415 78.2301 76.2768 78.3443 76.2178 78.5451C76.017 79.2255 76.1221 79.9188 75.5564 80.4354C75.2702 80.5324 75.2332 80.5626 74.9505 80.4712C74.9139 80.3152 74.8829 80.2627 74.9398 80.1093C75.0044 79.5629 74.7075 79.1712 74.436 78.7261C74.5627 78.477 74.5993 78.4378 74.835 78.2874C75.2289 78.2986 75.3013 78.3521 75.624 78.5779Z" fill="#FEFEFE"/>
<path d="M74.9398 80.1093C75.0044 79.5629 74.7075 79.1712 74.436 78.7261C74.5627 78.4771 74.5993 78.4379 74.835 78.2875C75.2289 78.2987 75.3013 78.3521 75.624 78.5779C75.3469 79.0148 75.4835 79.5698 75.1289 79.927C75.1104 79.9456 75.0927 79.9645 75.0742 79.9835C75.0307 80.0274 74.9863 80.0688 74.9398 80.1093Z" fill="#FEFEFE"/>
<path d="M57.9794 35.7573C58.0027 35.1101 57.6998 34.8629 57.4481 34.3136C57.3266 34.0479 57.2982 33.7785 57.405 33.5027C57.6071 33.3249 57.6416 33.2919 57.9049 33.2504L57.5722 33.3283L57.8644 33.2391L58.0057 33.3373C58.1479 33.7111 58.063 34.1543 58.0273 34.5451C58.2862 34.7386 58.7977 34.75 59.1209 34.7972L59.332 34.7919L59.4583 34.9419C59.4126 35.2944 59.2665 35.5148 58.9825 35.7465C58.8046 35.8919 58.537 36.018 58.3047 35.9987C58.2229 35.9919 58.1544 35.9599 58.0798 35.928L57.9794 35.7573Z" fill="#FEFEFE"/>
<path d="M78.4537 60.8118C78.0327 61.0807 77.7522 61.6085 77.2537 61.6417C77.1684 61.4685 77.1425 61.3026 77.1111 61.113C76.8396 61.1005 76.6763 61.2681 76.4518 61.412L76.3281 61.3194C76.3367 61.2595 76.3484 61.2005 76.3721 61.1444C76.5328 60.7687 78.0215 59.5338 78.402 59.3894C78.5278 59.5626 78.7174 59.7268 78.6743 59.9526C78.6412 60.1275 78.4908 60.3094 78.3908 60.4546C78.3964 60.58 78.3895 60.6998 78.4537 60.8118Z" fill="#FEFEFE"/>
<path d="M66.8701 27.6996C67.2506 27.5047 67.6108 27.6349 68.0068 27.7637C68.5989 27.956 69.2512 28.1479 69.5447 28.7543C69.6468 28.9653 69.6744 29.1362 69.6132 29.3669C69.4145 29.5562 69.3719 29.5889 69.106 29.6505C68.5067 29.1779 67.915 27.9107 67.0502 28.0079C66.999 28.0136 66.9709 28.0198 66.9231 28.0291L66.8701 27.6996Z" fill="#FEFEFE"/>
<path d="M84.1323 38.9012C85.0587 38.2739 85.8477 37.6175 86.6091 36.7932C86.9693 36.867 87.0714 37.1887 87.4144 37.3359L87.3735 37.4882C86.3846 38.0325 85.4211 38.8858 84.3797 39.2569L84.1323 38.9012Z" fill="#FEFEFE"/>
<path d="M88.9734 68.5639C88.8855 68.6062 88.7829 68.6199 88.6877 68.6411C88.4705 68.4209 88.3723 68.1546 88.2577 67.8741C88.0939 67.4738 87.9845 67.2213 88.1594 66.8037L88.3986 66.7158C88.8713 66.7606 89.2647 67.036 89.665 67.2712C89.7511 67.6151 89.808 67.7047 89.6805 68.0447C89.4423 68.2145 89.2066 68.3875 88.9734 68.5639Z" fill="#FEFEFE"/>
<path d="M88.9738 68.5639C88.8032 68.4678 88.6739 68.2498 88.555 68.0951C88.5292 67.8827 88.4887 67.8051 88.6265 67.6259C88.8722 67.3074 89.2996 67.301 89.6654 67.2712C89.7516 67.6151 89.8085 67.7047 89.6809 68.0447C89.4428 68.2145 89.2071 68.3875 88.9738 68.5639Z" fill="#FEFEFE"/>
<path d="M81.5121 71.7332C81.5775 71.75 81.6435 71.765 81.7042 71.7974C81.949 71.9284 81.9916 71.9895 82.0817 72.2373C81.9619 73.0267 81.5573 73.5623 81.088 74.1785C80.7985 74.2224 80.6744 74.2845 80.4107 74.1462L80.356 73.9428C80.5236 73.2684 81.1277 72.3153 81.5121 71.7332Z" fill="#FEFEFE"/>
<path d="M81.8399 33.5562C81.9657 33.6714 82.0881 33.8078 82.1437 33.9725C82.282 34.3838 82.3919 35.1634 82.1976 35.5551C81.8946 35.6562 81.2349 35.2662 80.9204 35.1335C80.6511 35.2581 80.5059 35.377 80.209 35.3289C80.2684 34.7916 81.5176 34.1686 81.8399 33.5562Z" fill="#FEFEFE"/>
<path d="M49.8297 41.3741L49.535 41.5516C49.3018 41.4781 49.1084 41.3858 48.8951 41.2673C47.474 42.3228 48.0635 42.4159 47.3249 43.4324C47.0681 43.5358 47.0509 43.5629 46.7919 43.4781L46.7471 43.2254C46.916 42.7446 47.4283 42.5583 47.714 42.1635C48.0876 41.647 48.0083 41.0231 48.5288 40.5482C48.8485 40.4895 49.1437 40.6469 49.4384 40.7597C49.5694 40.9618 49.7142 41.1628 49.8297 41.3741Z" fill="#FEFEFE"/>
<path d="M57.3075 66.8163L57.5579 66.896C57.6277 66.999 57.6984 67.1196 57.7966 67.1976C57.9565 67.3243 58.29 67.1093 58.5063 67.0865C58.5287 67.1382 58.5429 67.1606 58.5446 67.2239C58.5752 68.2619 57.1744 68.3348 56.6388 68.863C56.6259 68.8755 56.6142 68.8893 56.6017 68.9022C56.5406 68.9815 56.4772 69.06 56.4018 69.1267C56.2299 69.2793 56.0963 69.3383 55.8684 69.3237C55.6792 68.4985 57.1908 68.1654 57.5234 67.5255C57.3924 67.4161 57.2624 67.3053 57.1335 67.1933L57.3075 66.8163Z" fill="#FEFEFE"/>
<path d="M86.8098 64.9172C86.9387 65.0767 86.9154 65.0892 86.9025 65.2848C86.1092 66.2384 84.8997 67.0911 83.8793 67.7917C83.7651 67.6586 83.7712 67.6439 83.7578 67.4668C84.3158 66.5279 85.8524 65.4524 86.8098 64.9172Z" fill="#FEFEFE"/>
<path d="M63.7258 28.9471C63.8507 28.9276 63.9542 28.9398 64.0722 28.9891C64.3549 29.1069 64.6268 29.3216 64.7401 29.609C64.6117 30.1328 63.9697 29.5723 63.2053 30.4259C62.976 30.0808 62.8403 30.0332 62.5171 29.8198C62.2991 29.6758 62.2526 29.5705 62.1948 29.332C62.4077 29.1457 62.9424 29.3088 63.2453 29.304C63.4655 29.3006 63.5771 29.101 63.7258 28.9471Z" fill="#FEFEFE"/>
<path d="M66.6813 30.6559C66.8076 30.7249 66.7848 30.7697 66.8244 30.902C66.5516 31.4226 64.7087 32.2443 64.1145 32.4373L63.9684 32.2161C63.9714 32.112 63.9516 31.9692 64.0059 31.8802C64.4161 31.2059 65.9436 30.8391 66.6813 30.6559Z" fill="#FEFEFE"/>
<path d="M77.5983 44.6553L77.7676 44.7281C77.5134 44.975 77.3751 45.296 77.1756 45.5851C76.5672 46.4676 75.882 47.1019 74.9005 47.5302L74.7471 47.4673C74.8113 46.8615 77.0239 45.159 77.5983 44.6553Z" fill="#FEFEFE"/>
<path d="M85.4366 64.1701C85.0971 64.6406 84.7774 65.2059 84.1775 65.3529L84.0259 65.237C84.0272 65.2184 84.028 65.1999 84.0298 65.1809C84.1013 64.4919 84.998 63.8025 85.5129 63.4039L85.7309 63.4393L85.905 63.6965L85.9692 63.6982C86.1575 63.7051 86.2751 63.7211 86.4441 63.8038C86.4238 64.0261 86.3505 64.1205 86.2122 64.2916C85.8921 64.3877 85.7395 64.3041 85.4366 64.1701Z" fill="#FEFEFE"/>
<path d="M85.7308 63.4392L85.9049 63.6965L85.9691 63.6982C86.1574 63.7051 86.275 63.721 86.444 63.8037C86.4237 64.0261 86.3505 64.1205 86.2121 64.2915C85.892 64.3876 85.7394 64.304 85.4365 64.17C85.6339 63.8869 85.6998 63.7951 85.7308 63.4392Z" fill="#FEFEFE"/>
<path d="M78.5598 53.5072C78.5059 53.5783 78.4477 53.6516 78.3784 53.7089C78.1444 53.9028 77.8445 54.0191 77.5984 54.2006C77.1055 54.5651 76.2502 55.5152 75.6025 55.4527C75.7749 54.8197 77.1469 54.2105 77.6239 53.6899C77.6053 53.4262 76.8987 53.4349 76.6841 53.141L76.7367 52.9298C77.3455 52.8148 77.5398 53.4159 78.2737 53.1638L78.5598 53.5072Z" fill="#FEFEFE"/>
<path d="M78.4766 69.724C78.5339 69.409 78.5296 69.2815 78.7437 69.0363C78.9867 68.9893 79.4 68.9578 79.6146 68.8497C80.1204 68.5963 80.6284 67.2136 81.2188 67.5225C81.2239 67.9125 80.9137 68.2158 80.6496 68.4895C80.2928 68.8587 79.2539 69.7852 78.779 69.8929L78.4766 69.724Z" fill="#FEFEFE"/>
<path d="M49.4385 40.7598C49.65 40.5496 49.8913 40.2732 50.2085 40.2733C50.642 40.2734 50.9531 40.7414 51.3745 40.8696C51.4607 40.896 51.5072 40.9253 51.574 40.986L51.4176 41.3805C51.1211 41.3737 50.9664 41.4626 50.7225 41.6258L50.667 41.6636L50.4472 41.597L50.308 41.2439C50.1025 41.229 50.0077 41.2744 49.8297 41.3743C49.7142 41.163 49.5695 40.962 49.4385 40.7598Z" fill="#FEFEFE"/>
<path d="M85.8298 55.1855C86.1107 55.0313 86.4425 54.8089 86.7782 54.8874C86.8626 54.9072 86.923 54.9442 86.9958 54.9891C86.9889 55.2278 86.91 55.345 86.7213 55.5014C86.6368 55.5716 86.5416 55.6276 86.4464 55.6819C85.4807 55.5389 85.0559 56.3821 84.2256 56.4239C84.1523 56.4278 84.0799 56.3257 84.0273 56.2753L84.0618 56.031C84.5181 55.4807 85.2231 55.5927 85.7453 55.2454C85.7742 55.2265 85.8013 55.2058 85.8298 55.1855Z" fill="#FEFEFE"/>
<path d="M85.8296 55.1855C86.1105 55.0313 86.4423 54.8089 86.778 54.8874C86.8624 54.9072 86.9228 54.9442 86.9956 54.9891C86.9887 55.2278 86.9098 55.345 86.7211 55.5014C86.6367 55.5716 86.5414 55.6276 86.4462 55.6819C86.1372 55.5617 86.02 55.4454 85.8296 55.1855Z" fill="#FEFEFE"/>
<path d="M61.0907 31.5594C61.2747 31.6204 61.3514 31.6817 61.4794 31.8264C61.4997 32.0399 61.5022 32.2616 61.6315 32.4415C61.7242 32.5704 61.7961 32.5523 61.9452 32.5786C62.1516 32.4529 62.2787 32.2768 62.4278 32.0912C62.4463 32.2382 62.4562 32.3678 62.548 32.489C62.6441 32.6156 62.6919 32.7495 62.7484 32.8969C62.1938 33.0229 61.6341 33.2955 61.0662 33.2155C60.999 33.1593 60.8805 33.0899 60.8529 33.0072C60.7077 32.5702 60.8986 31.9599 61.0907 31.5594Z" fill="#FEFEFE"/>
<path d="M82.532 26.7306C82.9469 26.6738 83.4218 26.6717 83.8182 26.8152C84.2224 26.9617 84.4163 27.1288 84.5964 27.5166C84.4865 27.7632 84.4809 27.8447 84.2306 27.9703C83.7316 27.7162 83.0857 27.5833 82.6246 27.3075C82.4281 27.1897 82.4018 27.1143 82.3467 26.91L82.532 26.7306Z" fill="#FEFEFE"/>
<path d="M77.5973 35.3608C77.2638 35.4309 76.9346 35.3296 76.6166 35.4781C76.6838 35.8049 76.8346 36.3412 76.7351 36.6655C76.6782 36.8512 76.5908 36.8621 76.4287 36.9407L76.2857 36.8471L76.2353 36.1363C76.1211 36.0074 76.0371 35.8833 75.9841 35.7174C75.9112 35.4904 75.9156 35.2561 76.0302 35.0438C76.1633 34.7968 76.215 34.7996 76.4749 34.7234C76.826 34.7537 77.2151 34.7373 77.4969 34.9751C77.5478 35.1056 77.5973 35.2179 77.5973 35.3608Z" fill="#FEFEFE"/>
<path d="M76.4746 34.7234C76.8258 34.7537 77.2149 34.7373 77.4967 34.9751C77.5475 35.1056 77.5971 35.2179 77.5971 35.3608C77.2903 35.3369 76.9977 35.3068 76.6965 35.2413C76.4884 35.0288 76.4931 35.0216 76.4746 34.7234Z" fill="#FEFEFE"/>
<path d="M48.7519 71.6391C47.9612 71.8011 47.1559 71.8412 46.3958 71.5525L46.376 71.213C47.0878 70.7601 47.657 71.044 48.3887 71.0914L48.4628 71.0953L48.7519 71.6391Z" fill="#FEFEFE"/>
<path d="M47.6836 65.9303C47.9336 65.9032 48.0598 65.8704 48.2968 65.9708L48.311 66.1893C48.1007 66.6336 47.7547 66.9727 47.4247 67.3294C47.3902 67.3294 47.3557 67.332 47.3213 67.3294C47.011 67.3083 46.964 67.2454 46.7719 67.0218C46.6883 66.7689 46.6779 66.5202 46.8124 66.2807C46.9813 65.9799 47.379 65.9907 47.6836 65.9303Z" fill="#FEFEFE"/>
<path d="M78.2734 53.1638C78.4854 52.7294 79.0094 52.2947 79.417 52.0452C79.5549 51.9607 79.5493 51.9663 79.7027 52.0034L79.6075 52.2628L79.6325 52.3403C79.7583 52.7191 79.9811 53.0181 80.212 53.3387L80.0931 53.5455C79.7898 53.5753 79.4356 53.3913 79.2072 53.1978C79.14 53.1409 79.0779 53.0815 79.0163 53.0186C78.8745 53.1457 78.613 53.3241 78.5595 53.5072L78.2734 53.1638Z" fill="#FEFEFE"/>
<path d="M79.6078 52.2627L79.6328 52.3403C79.7586 52.719 79.9814 53.0181 80.2123 53.3386L80.0934 53.5455C79.7901 53.5752 79.4359 53.3912 79.2075 53.1977C79.1403 53.1409 79.0782 53.0814 79.0166 53.0185C79.2243 52.7742 79.4156 52.5191 79.6078 52.2627Z" fill="#FEFEFE"/>
<path d="M50.2559 70.8249C50.679 70.7827 50.8634 71.1032 51.2439 71.0989C51.5994 71.0942 51.8286 70.8167 52.1983 70.8296C52.5245 70.9641 52.6887 71.2161 52.8951 71.488C52.8744 71.4962 52.8537 71.5044 52.833 71.513C52.1664 71.7978 51.1314 71.6638 50.4558 71.4553C50.2567 71.2135 50.2731 71.1261 50.2559 70.8249Z" fill="#FEFEFE"/>
<path d="M71.0356 51.4772C71.2403 51.4582 71.3692 51.4354 71.548 51.3311C71.5984 50.8459 71.1709 50.4775 71.1821 49.9816C71.6566 50.0583 71.8328 50.256 72.1891 50.5564C72.3882 50.8209 72.433 50.8537 72.4188 51.2006C72.2421 51.5487 71.8979 51.7905 71.5467 51.9477L71.2304 51.94L71.0356 51.4772Z" fill="#FEFEFE"/>
<path d="M72.1888 50.5564C72.3879 50.821 72.4327 50.8537 72.4185 51.2006C72.2418 51.5487 71.8976 51.7905 71.5464 51.9478C71.5744 51.5281 71.9363 50.8843 72.1888 50.5564Z" fill="#FEFEFE"/>
<path d="M82.0904 36.9928C82.3055 36.763 82.4597 36.5754 82.779 36.5046L82.963 36.5787C82.969 36.9545 82.8195 37.0795 82.6127 37.3864C82.5825 37.5285 82.5528 37.7282 82.4507 37.838C82.0909 38.2261 81.1265 38.2277 80.6284 38.2848C81.0873 37.8596 81.7143 37.485 82.0904 36.9928Z" fill="#FEFEFE"/>
<path d="M82.0903 36.9928C82.3053 36.763 82.4596 36.5754 82.7789 36.5046L82.9629 36.5787C82.9689 36.9545 82.8194 37.0795 82.6126 37.3864C82.3471 37.3219 82.2493 37.2002 82.0903 36.9928Z" fill="#FEFEFE"/>
<path d="M80.947 64.4688C81.1788 64.4632 81.2322 64.4554 81.43 64.57C81.4188 64.6359 81.4184 64.6704 81.393 64.729C81.1659 65.2599 79.3725 66.5077 78.8205 66.7594L78.6882 66.9438L78.5947 66.8555C79.207 65.8907 80.1378 65.2599 80.947 64.4688Z" fill="#FEFEFE"/>
<path d="M80.3249 41.8344L80.5253 42.0238C80.5735 42.2476 80.5619 42.3914 80.4667 42.5969C80.1064 43.3755 79.4317 43.7698 78.6642 44.0503L78.5005 43.7887C79.0615 43.0601 79.8505 42.683 80.3249 41.8344Z" fill="#FEFEFE"/>
<path d="M76.4601 27.1213C76.5635 27.3425 76.5549 27.407 76.5355 27.6538C76.1184 28.1226 75.9245 28.8316 75.4807 29.1709C75.3777 29.0529 75.3002 28.9307 75.2433 28.7837C75.1472 28.5364 75.1084 28.1908 75.2325 27.9469C75.4764 27.467 75.9939 27.3073 76.4601 27.1213Z" fill="#FEFEFE"/>
<path d="M64.3736 64.3286C64.5145 64.3433 64.6395 64.4105 64.7675 64.4669C64.8131 65.0547 63.8285 65.6523 63.6088 66.2754C63.5976 66.3064 63.5877 66.3374 63.5773 66.3685L63.4524 66.2681C63.2417 66.2909 63.0848 66.3064 62.8806 66.2448C62.8629 65.6967 64.022 64.8237 64.3736 64.3286Z" fill="#FEFEFE"/>
<path d="M64.06 34.2039C64.2272 34.4 64.2246 34.5411 64.2672 34.7847C64.206 35.2029 63.7915 35.5188 63.5037 35.8045L63.5976 36.2325L63.5287 36.3303L63.3132 36.2518L62.8168 35.9214L62.7725 35.692C62.947 35.1717 63.7166 34.6811 64.06 34.2039Z" fill="#FEFEFE"/>
<path d="M84.3798 39.2571C84.3501 39.2599 84.2993 39.263 84.2678 39.2707C83.9955 39.3371 83.7999 39.4895 83.6469 39.7123L83.7594 39.948C84.1196 40.0441 84.3251 39.9453 84.6823 39.8529L84.7228 39.9978C84.6233 40.1177 84.5238 40.2395 84.416 40.3523C84.2079 40.5701 84.0799 40.6197 83.7904 40.6244C83.553 40.4676 83.2212 40.1402 83.1173 39.8741C83.0656 39.7409 83.0604 39.6282 83.1298 39.5045C83.2949 39.2095 83.8227 39.0063 84.1325 38.9014L84.3798 39.2571Z" fill="#FEFEFE"/>
<path d="M82.0962 56.6966C82.4133 56.3325 82.7227 55.9128 83.1489 55.6732L83.2402 55.7055C83.2079 55.9572 83.1562 56.1735 83.0756 56.4135L83.307 56.8448C83.1015 57.2563 82.649 57.4442 82.2336 57.6144L82.0962 56.6966Z" fill="#FEFEFE"/>
<path d="M66.0091 28.309C65.7256 27.939 65.1185 27.5085 65.0707 27.0079C65.0633 26.9297 65.1732 26.8381 65.2241 26.7778C65.7601 26.9047 65.9191 27.6021 66.4284 27.785C66.4431 27.7904 66.4586 27.7944 66.4741 27.7991L66.8701 27.6995L66.9231 28.029C66.8016 28.2714 66.774 28.3953 66.5292 28.5282C66.325 28.4808 66.1785 28.4351 66.0091 28.309Z" fill="#FEFEFE"/>
<path d="M66.4737 27.7991L66.8697 27.6996L66.9227 28.0291C66.8012 28.2714 66.7736 28.3953 66.5289 28.5283C66.3246 28.4809 66.1781 28.4352 66.0088 28.3091C66.1182 28.1008 66.3027 27.9565 66.4737 27.7991Z" fill="#FEFEFE"/>
<path d="M53.2931 37.5263L53.4198 37.5054L53.4943 37.6934C53.2944 38.183 53.353 38.7001 53.3569 39.2153L53.1143 39.3312C52.7946 38.9846 52.3542 38.6215 52.3188 38.1406C52.5235 37.8098 52.9544 37.7041 53.2931 37.5263Z" fill="#FEFEFE"/>
<path d="M32.7793 68.2318C33.1833 68.3546 33.6081 68.3111 34.026 68.4102C33.7448 68.8109 33.2328 68.8842 33.069 69.3832C33.0616 69.4056 33.0564 69.4288 33.0501 69.4517C32.832 69.6645 32.641 69.7942 32.365 69.9231L32.2583 69.8546C32.2972 69.3112 32.699 68.895 32.7685 68.3283C32.7724 68.2964 32.7757 68.2641 32.7793 68.2318Z" fill="#FEFEFE"/>
<path d="M86.0503 27.7677C86.4019 27.8313 86.7475 27.8609 86.9638 28.1748C87.2671 28.6142 87.0629 29.4018 86.9453 29.8785L86.5958 29.8194C86.3709 29.591 86.4097 29.2238 86.4036 28.9049C86.3946 28.4494 86.2653 28.1674 86.0503 27.7677Z" fill="#FEFEFE"/>
<path d="M78.1361 54.7607C78.3649 54.8017 78.5614 54.8715 78.776 54.9602C78.8889 55.1977 78.8712 55.2127 78.8053 55.4704C78.5286 55.6785 78.3464 55.3774 77.996 55.4019L77.8625 55.6161C77.9517 55.8319 77.9853 56.0495 78.0253 56.2779L77.756 56.4598L77.7815 56.4352L77.3217 56.3163L77.3993 56.4481C77.3053 56.2831 77.2424 56.2335 77.2764 56.0401C77.3613 55.5562 77.7379 55.0322 78.1361 54.7607Z" fill="#FEFEFE"/>
<path d="M70.5212 26.0192C70.797 26.0309 70.9862 26.0508 71.2365 26.1858C71.5218 26.5745 71.5119 26.8745 71.4412 27.3391C71.0504 27.3846 70.7578 27.4234 70.4333 27.1754C70.3024 26.8314 70.4519 26.372 70.5212 26.0192Z" fill="#FEFEFE"/>
<path d="M82.2587 43.2245C82.5733 43.6121 82.9201 43.974 83.2588 44.3403C82.7823 44.6105 82.2854 44.844 81.7929 45.0836L81.646 45.1133C81.4301 45.0263 81.3741 45.0422 81.272 44.8242L81.4366 44.6574C81.674 44.6626 81.8692 44.6544 82.098 44.5868C82.3035 44.2649 82.2436 43.6086 82.2587 43.2245Z" fill="#FEFEFE"/>
<path d="M51.5744 40.9858C52.041 41.0033 52.6551 40.9845 52.9696 41.4047C53.0278 41.4829 53.0592 41.5644 53.0838 41.6575C52.9653 41.8953 52.9265 41.8771 52.6719 41.9695C52.2832 41.9654 51.714 41.6349 51.418 41.3804L51.5744 40.9858Z" fill="#FEFEFE"/>
<path d="M93.6731 68.0089C93.8825 67.9335 93.9876 67.9089 94.2061 67.9619C94.1074 68.5385 93.524 68.8526 93.0806 69.1883C92.8423 68.9987 92.6476 68.8095 92.564 68.5092C92.782 68.0533 93.2155 68.2256 93.6097 68.0399C93.6309 68.03 93.652 68.0192 93.6731 68.0089Z" fill="#FEFEFE"/>
<path d="M84.3209 57.4895L84.4445 57.7149C84.4437 57.8002 84.4385 57.8993 84.404 57.9786C84.2592 58.3121 83.3039 59.4087 83.0019 59.5143C82.8554 59.3126 82.8287 59.2794 82.8145 59.033C83.1725 58.428 83.8055 57.9635 84.3209 57.4895Z" fill="#FEFEFE"/>
<path d="M78.5461 77.5274C78.6874 77.5223 78.6883 77.5399 78.802 77.6291C78.7891 77.6597 78.777 77.6907 78.7633 77.7205C78.5586 78.1608 77.6494 78.8417 77.1944 79.0244L76.9401 78.9287L76.916 78.7602C77.3323 78.1169 77.839 77.786 78.5461 77.5274Z" fill="#FEFEFE"/>
<path d="M80.149 61.4331L80.3489 61.6916C79.7853 62.2725 79.7151 62.93 79.2687 63.4497L79.0554 63.3807C78.9713 63.2179 78.8679 63.0813 78.8804 62.893C78.9201 62.2996 79.731 61.7834 80.149 61.4331Z" fill="#FEFEFE"/>
<path d="M91.0938 63.7785C91.6802 63.5165 92.617 62.8835 93.2288 62.9077L93.2883 63.0154C92.8402 63.5531 92.2042 63.9621 91.5613 64.2227C91.5436 64.2296 91.5259 64.2361 91.5078 64.243L91.0938 63.7785Z" fill="#FEFEFE"/>
<path d="M89.2944 64.9828C89.3354 64.9509 89.378 64.916 89.4241 64.8923C90.0567 64.5618 90.4049 63.9939 91.0939 63.7784L91.5079 64.2429C90.9236 64.4407 90.3113 64.7066 89.9391 65.2198L89.7275 65.2767C89.5525 65.2116 89.4349 65.1034 89.2944 64.9828Z" fill="#FEFEFE"/>
<path d="M92.0179 69.8179C92.2515 69.8993 92.2704 69.895 92.3975 70.104C92.3075 70.6835 91.7215 71.1567 91.3272 71.5583L91.0911 71.5664L91.0195 71.4087C91.1514 70.8736 91.6361 70.207 92.0179 69.8179Z" fill="#FEFEFE"/>
<path d="M79.0213 47.1033C79.176 47.1102 79.2239 47.1459 79.3428 47.2347C79.3031 47.7824 78.7766 48.3012 78.6624 48.8949C78.4388 48.7484 78.2371 48.6429 78.144 48.3761C78.1945 47.8323 78.6555 47.4682 79.0213 47.1033Z" fill="#FEFEFE"/>
<path d="M57.4899 41.728C57.4456 41.7906 57.4068 41.8505 57.3766 41.9215C57.2995 42.1028 57.2245 42.3326 57.0914 42.4803C56.9349 42.6543 56.7303 42.7336 56.5002 42.7398C56.4019 42.6181 56.3537 42.5955 56.3636 42.4305C56.3942 41.9053 56.9285 41.5433 57.2952 41.224C57.3279 41.4494 57.3021 41.5783 57.4899 41.728Z" fill="#FEFEFE"/>
<path d="M59.9335 32.3411C59.9883 32.3802 60.0451 32.4216 60.0925 32.4698C60.3144 32.6953 60.3605 32.9612 60.345 33.2592C60.1822 33.6195 59.9598 33.7424 59.6259 33.9326L59.4324 33.9085L59.3647 33.7921C59.491 33.3121 59.5746 32.7025 59.9335 32.3411Z" fill="#FEFEFE"/>
<path d="M65.8632 33.8135C66.1002 33.9086 66.1312 33.8997 66.2475 34.1224C66.2131 34.7054 65.8533 35.2253 65.5517 35.7093C65.3427 35.6057 65.3397 35.5908 65.2393 35.3783C65.2931 34.8355 65.6266 34.2991 65.8632 33.8135Z" fill="#FEFEFE"/>
<path d="M60.8928 34.2614C61.073 34.2701 61.2143 34.2879 61.3819 34.3583C61.5224 34.4174 61.6616 34.9526 61.774 35.0925C61.9253 35.2814 61.986 35.2327 62.0925 35.4978L61.6667 35.619C61.4198 35.5644 61.2216 35.4975 61.0652 35.2858C60.8217 34.9561 60.8269 34.6477 60.8928 34.2614Z" fill="#FEFEFE"/>
<path d="M76.9175 31.7347L77.0696 31.6433C77.5423 31.6961 77.9228 31.6021 78.3381 31.8815C78.5131 32.1988 78.4135 32.3556 78.3425 32.7034C78.1787 32.7802 78.1701 32.7701 77.9913 32.7308C77.9236 32.578 77.8534 32.4025 77.7547 32.2669C77.5824 32.0297 77.3212 31.9921 77.0511 31.9501L76.9481 31.9349L76.9175 31.7347Z" fill="#FEFEFE"/>
<path d="M80.1489 61.4332C80.3601 61.2957 80.694 61.1669 80.8642 61.0062C81.1236 60.7614 81.2456 60.4546 81.5911 60.3292C81.773 60.5477 81.7967 60.8265 81.8436 61.0971L81.7708 61.2307C81.2154 61.2819 80.7647 61.2638 80.3489 61.6917L80.1489 61.4332Z" fill="#FEFEFE"/>
<path d="M42.012 67.915L42.1318 67.9771L42.1482 68.1775C41.777 68.763 41.2944 69.3387 40.6947 69.6955L40.5293 69.5636C40.6017 68.9544 41.5891 68.3739 42.012 67.915Z" fill="#FEFEFE"/>
<path d="M70.8149 60.3904C71.1485 60.4576 71.4221 60.5153 71.7138 60.7002C71.8849 61.0384 71.8508 61.188 71.8336 61.5603C71.7771 61.5814 71.7194 61.6064 71.6586 61.612C71.469 61.6309 71.385 61.618 71.2402 61.4982C70.9072 61.2224 70.8524 60.7959 70.8149 60.3904Z" fill="#FEFEFE"/>
<path d="M84.6482 61.3856L84.6348 61.5821L84.8447 61.7687L84.6775 61.7622C84.4879 62.11 83.3714 62.5779 82.9935 62.7951L82.8643 62.6309L82.8897 62.4853C83.3981 62.2931 83.508 61.77 83.9307 61.4929C84.029 61.564 84.1121 61.6261 84.2362 61.6411C84.3715 61.6575 84.5391 61.4735 84.6482 61.3856Z" fill="#FEFEFE"/>
<path d="M74.0808 62.7366C74.1774 62.8236 74.1851 62.8702 74.2325 62.9886C74.0839 63.5811 73.4621 63.8922 72.9847 64.2081C72.8373 64.0461 72.8416 64.0409 72.8364 63.8207C73.1312 63.3665 73.6504 63.055 74.0808 62.7366Z" fill="#FEFEFE"/>
<path d="M73.6625 48.1896C73.8288 48.2482 73.8435 48.2779 73.9491 48.4111C73.8706 48.7954 73.1941 49.3224 72.9244 49.6249C72.6917 49.4887 72.6021 49.4823 72.5254 49.2125C72.6934 48.8527 73.3549 48.483 73.6625 48.1896Z" fill="#FEFEFE"/>
<path d="M85.6067 71.1527C85.7329 71.1315 85.8557 71.1682 85.979 71.1936L86.0173 71.3203C85.7506 71.7736 85.0663 72.151 84.6527 72.4815C84.6488 72.5893 84.6251 72.6013 84.5678 72.6884L84.4536 72.4794C84.5549 71.8555 85.1353 71.5219 85.6067 71.1527Z" fill="#FEFEFE"/>
<path d="M74.8323 22.2139L75.1292 22.3923C75.4127 22.8588 75.2154 23.7063 75.1585 24.237C75.0025 24.208 74.9275 24.1017 74.8254 23.9911C74.6565 23.4305 74.6729 22.775 74.8323 22.2139Z" fill="#FEFEFE"/>
<path d="M89.0454 34.2883C89.1484 34.337 89.2557 34.3881 89.3462 34.4579C89.509 34.5828 89.5935 34.7738 89.6206 34.973C89.6728 35.3556 89.5026 35.6909 89.2733 35.9815C89.0807 35.9283 88.8812 35.8949 88.73 35.7563C89.2656 35.3453 88.8903 34.8986 89.0454 34.2883Z" fill="#FEFEFE"/>
<path d="M57.2949 41.224C57.5612 41.2033 57.5849 41.1798 57.7973 41.3555C58.1046 41.6091 58.2429 41.9012 58.2593 42.3016C58.264 42.4131 58.2429 42.5237 58.2153 42.6311L58.0585 42.6623C57.7245 42.3745 57.6827 42.0981 57.4897 41.728C57.3018 41.5783 57.3277 41.4493 57.2949 41.224Z" fill="#FEFEFE"/>
<path d="M45.3763 68.2179L45.7822 68.2631C45.9416 68.3803 46.042 68.4657 46.1148 68.6553C46.1807 68.825 46.1458 68.8405 46.0756 68.9987L45.808 69.0456C45.506 69.0418 45.2289 69.0474 44.9415 68.9405C44.9363 68.6578 45.2017 68.4381 45.3763 68.2179Z" fill="#FEFEFE"/>
<path d="M46.1303 40.5519C46.347 40.7697 46.4004 40.8932 46.4509 41.1921C46.3755 41.5014 46.0743 41.6707 45.8325 41.8508C45.6722 41.6148 45.596 41.4612 45.5576 41.1712C45.649 40.8541 45.8735 40.7277 46.1303 40.5519Z" fill="#FEFEFE"/>
<path d="M72.1006 45.0172C72.2661 45.0375 72.3794 45.0801 72.4992 45.2029C72.7638 45.4748 72.7427 45.8993 72.7444 46.2513C72.3936 46.2194 72.2683 46.2401 71.9847 46.0199C71.868 45.6929 72.0149 45.3387 72.1006 45.0172Z" fill="#FEFEFE"/>
<path d="M48.4624 71.0954C48.8334 70.9614 49.176 70.786 49.5659 70.9385L49.7628 71.1294C49.7012 71.3306 49.6961 71.3841 49.5056 71.5013C49.3143 71.6189 48.9734 71.6185 48.7515 71.6392L48.4624 71.0954Z" fill="#FEFEFE"/>
<path d="M59.1155 29.1372C59.3443 29.2342 59.5403 29.3994 59.7398 29.5461C59.8967 29.8709 59.8833 29.987 59.857 30.335C59.6739 30.3431 59.4899 30.3419 59.3068 30.3436C58.9987 29.962 59.0832 29.606 59.1155 29.1372Z" fill="#FEFEFE"/>
<path d="M78.1519 62.8628L78.2872 63.0511C78.2437 63.5798 77.9641 63.9327 77.6189 64.3145C77.5724 64.2744 77.5612 64.2697 77.5241 64.2093C77.4229 64.0434 77.3681 63.7952 77.4207 63.6065C77.5228 63.2403 77.8486 63.0468 78.1519 62.8628Z" fill="#FEFEFE"/>
<path d="M70.0767 41.0493C70.393 41.1206 70.5502 41.1889 70.7342 41.4522C70.7398 41.7877 70.5097 42.0257 70.318 42.2804L70.1952 42.3834L70.0189 42.3594C69.8983 41.9682 70.0267 41.4516 70.0767 41.0493Z" fill="#FEFEFE"/>
<path d="M73.9862 41.6046C74.1836 41.7073 74.1952 41.7315 74.2995 41.9301C74.3128 42.3383 74.103 42.7207 73.9418 43.0869C73.7048 42.9116 73.632 42.8617 73.5161 42.5789C73.5286 42.2201 73.7958 41.8968 73.9862 41.6046Z" fill="#FEFEFE"/>
<path d="M78.4763 69.7239L78.7788 69.8928C78.6517 70.144 78.5147 70.5163 78.269 70.6688C78.0777 70.7878 77.7813 70.7692 77.5719 70.7111C77.4585 70.68 77.4387 70.6968 77.3818 70.5926C77.6089 70.1828 78.2359 70.1936 78.4569 69.7674C78.4642 69.7532 78.4698 69.7381 78.4763 69.7239Z" fill="#FEFEFE"/>
<path d="M71.2306 51.94C71.0393 51.9796 70.8473 52.0162 70.6545 52.0499C70.4059 51.8939 70.3723 51.8051 70.2456 51.5509C70.2659 51.2699 70.2512 51.2428 70.443 51.042L70.6942 51.0446L71.0359 51.4772L71.2306 51.94Z" fill="#FEFEFE"/>
<path d="M53.3737 28.8854C53.6675 28.9943 53.7649 29.0206 53.9653 29.2759C53.9976 29.6241 53.9006 29.801 53.7369 30.0968C53.4866 29.9365 53.3345 29.804 53.1586 29.5584C53.1349 29.2104 53.1875 29.163 53.3737 28.8854Z" fill="#FEFEFE"/>
<path d="M71.7912 41.5811C71.9786 41.6679 72.1721 41.7511 72.2893 41.9307C72.5021 42.2568 72.4086 42.6408 72.3436 42.9961C72.1419 42.9086 72.0044 42.7773 71.8459 42.6308C71.6692 42.279 71.7412 41.956 71.7912 41.5811Z" fill="#FEFEFE"/>
<path d="M68.9457 46.4225C69.0806 46.4595 69.1543 46.5362 69.2534 46.6285C69.3809 47.121 69.3189 47.6393 69.1086 48.1004C69.0199 48.0383 68.9453 47.9845 68.8897 47.8888C68.6338 47.4528 68.8277 46.8689 68.9457 46.4225Z" fill="#FEFEFE"/>
<path d="M74.3381 36.0517C74.4816 36.0198 74.6225 36.0659 74.7629 36.0959L74.7746 36.2821C74.5436 36.6052 74.2704 36.7753 73.9369 36.9818C73.7404 36.8412 73.6103 36.8073 73.5659 36.5557C73.8213 36.3846 74.0787 36.2166 74.3381 36.0517Z" fill="#FEFEFE"/>
<path d="M75.3657 42.7026C75.5243 42.8955 75.5963 43.003 75.5881 43.2688C75.5786 43.5695 75.4614 43.7776 75.2442 43.9784C75.0667 43.7742 74.9374 43.6018 74.8306 43.3485C74.9374 43.0155 75.1042 42.9278 75.3657 42.7026Z" fill="#FEFEFE"/>
<path d="M89.2943 64.9827C89.4347 65.1033 89.5524 65.2115 89.7273 65.2765C89.3559 65.4149 89.1508 65.7889 88.7608 65.9431C88.5312 65.8923 88.5355 65.8845 88.3984 65.6911C88.5885 65.3244 88.9625 65.2774 89.2559 65.0176C89.2688 65.0059 89.2813 64.9943 89.2943 64.9827Z" fill="#FEFEFE"/>
<path d="M81.1528 50.8355C81.4596 50.808 81.8216 50.7295 82.1034 50.8799C82.1822 51.1906 82.1077 51.3392 82.0237 51.6448C81.8961 51.6542 81.7837 51.6017 81.6734 51.5413C81.3722 51.3763 81.2425 51.1561 81.1528 50.8355Z" fill="#FEFEFE"/>
<path d="M83.4128 73.8378C83.5451 74.0782 83.5835 74.1364 83.5762 74.4065C83.3086 74.6117 82.5864 74.6147 82.2283 74.7056C82.1645 74.588 82.1624 74.5811 82.1796 74.4483C82.6446 74.2898 83.0134 74.1278 83.4128 73.8378Z" fill="#FEFEFE"/>
<path d="M23.1133 70.8236C23.3635 70.89 23.5708 70.9374 23.7704 71.114C23.7386 71.4079 23.5892 71.4618 23.376 71.6496C23.0602 71.5738 22.922 71.5639 22.6777 71.3424C22.7735 71.0666 22.8925 71.0024 23.1133 70.8236Z" fill="#FEFEFE"/>
<path d="M55.563 34.6927C55.7268 34.7304 55.778 34.7719 55.8935 34.8852C55.9099 35.2014 55.5936 35.5436 55.4139 35.7964C55.2101 35.6686 55.1296 35.571 55.0317 35.3515C55.1511 35.0151 55.2989 34.926 55.563 34.6927Z" fill="#FEFEFE"/>
<path d="M77.8584 51.5156C78.1225 51.6414 78.1272 51.6272 78.2251 51.9008C78.1449 52.1848 77.9316 52.33 77.714 52.5084C77.5046 52.4076 77.3831 52.3507 77.2642 52.1465C77.3792 51.8254 77.5938 51.7237 77.8584 51.5156Z" fill="#FEFEFE"/>
<path d="M85.0582 33.8032C85.312 33.8614 85.4796 33.9197 85.6847 34.0823C85.7454 34.3585 85.7136 34.3906 85.5955 34.6526C85.2758 34.6405 85.1129 34.6523 84.869 34.4398C84.8595 34.1549 84.9306 34.0503 85.0582 33.8032Z" fill="#FEFEFE"/>
<path d="M71.3419 33.1709C71.5199 33.2141 71.628 33.3151 71.7667 33.43C71.8262 33.7869 71.7491 33.9179 71.6271 34.2525C71.4065 34.2134 71.2915 34.1486 71.1204 34.0051C71.0941 33.6432 71.1941 33.4971 71.3419 33.1709Z" fill="#FEFEFE"/>
<path d="M68.5408 32.4518C68.7881 32.4853 68.9751 32.5396 69.1996 32.65C69.3078 32.9389 69.2315 33.0461 69.1466 33.3368C68.9303 33.3163 68.7649 33.2748 68.5658 33.1884C68.4206 32.8874 68.4831 32.7745 68.5408 32.4518Z" fill="#FEFEFE"/>
<path d="M76.7066 74.1086C76.9509 74.1341 77.0866 74.1815 77.2865 74.3254C77.324 74.6141 77.24 74.736 77.1288 75.001C76.8906 74.9829 76.7359 74.9433 76.5269 74.8265C76.4597 74.5124 76.5721 74.3939 76.7066 74.1086Z" fill="#FEFEFE"/>
<path d="M70.4209 38.9345C70.7277 38.9325 70.9229 38.9385 71.1991 39.0887C71.3292 39.3687 71.3008 39.4444 71.2491 39.7372C71.0448 39.7233 70.8725 39.6614 70.6803 39.5948C70.4605 39.3355 70.4567 39.2587 70.4209 38.9345Z" fill="#FEFEFE"/>
<path d="M61.6623 62.3875C61.8644 62.3909 62.0014 62.4172 62.1858 62.5012C62.303 62.8644 62.1772 63.1501 62.0915 63.5138C61.954 63.4548 61.8631 63.3531 61.7541 63.2527C61.6123 62.9355 61.6231 62.727 61.6623 62.3875Z" fill="#FEFEFE"/>
<path d="M51.4087 63.5918C51.6323 63.6056 51.8947 63.6668 52.0675 63.8193C52.289 64.0154 52.2748 64.1632 52.2675 64.4299C51.9611 64.4743 51.9189 64.4484 51.6362 64.3135C51.4483 64.0223 51.4298 63.9244 51.4087 63.5918Z" fill="#FEFEFE"/>
<path d="M87.6614 68.0125C87.8627 68.1736 87.8786 68.1913 87.9484 68.4386C87.8683 68.748 87.6451 68.9066 87.4124 69.103C87.2659 69.0509 87.2297 68.9858 87.1431 68.8643C87.1448 68.5088 87.4395 68.2624 87.6614 68.0125Z" fill="#FEFEFE"/>
<path d="M50.1222 34.265C50.3601 34.2852 50.5208 34.3498 50.7315 34.4596C50.8746 34.7337 50.8565 34.8453 50.8405 35.145C50.6242 35.1321 50.4389 35.0812 50.2317 35.0193C50.0597 34.7251 50.1032 34.5991 50.1222 34.265Z" fill="#FEFEFE"/>
<path d="M41.0217 38.8843C41.2737 38.9181 41.412 38.9535 41.603 39.1257C41.72 39.383 41.668 39.5578 41.6058 39.818C41.3869 39.7631 41.1903 39.6777 40.9849 39.5871C40.8548 39.2961 40.9386 39.1853 41.0217 38.8843Z" fill="#FEFEFE"/>
<path d="M59.5234 23.6718C59.8664 23.7182 60.3081 23.7279 60.5942 23.9327L60.5567 24.1508C60.2973 24.2589 60.1082 24.3072 59.8251 24.3236C59.5592 24.1032 59.5863 24.0027 59.5234 23.6718Z" fill="#FEFEFE"/>
<path d="M43.847 38.2402C44.0737 38.2561 44.1831 38.3007 44.3611 38.4413C44.4158 38.7313 44.3594 38.8041 44.2409 39.0634L43.5532 38.7903C43.5398 38.5121 43.6738 38.4388 43.847 38.2402Z" fill="#FEFEFE"/>
<path d="M55.6095 32.139C55.7621 32.2642 55.8349 32.3126 55.8982 32.5084C55.9956 32.8086 55.9547 33.1416 55.8237 33.4226C55.6836 33.2778 55.56 33.1161 55.4324 32.96C55.382 32.5772 55.454 32.483 55.6095 32.139Z" fill="#FEFEFE"/>
<path d="M75.2382 48.5244C75.3843 48.5817 75.5205 48.6683 75.6571 48.7455C75.8139 49.0475 75.8083 49.1673 75.8005 49.4969C75.5524 49.4767 75.4188 49.4504 75.2275 49.2862C75.1038 49.0083 75.1702 48.8045 75.2382 48.5244Z" fill="#FEFEFE"/>
<path d="M75.2094 38.8171C75.3693 38.9767 75.4292 39.12 75.4417 39.3474C75.4572 39.62 75.3499 39.839 75.1668 40.0348C75.0401 39.869 74.9617 39.6911 74.8755 39.5023C74.9164 39.1676 75.0104 39.0819 75.2094 38.8171Z" fill="#FEFEFE"/>
<path d="M67.6372 46.3411C67.7539 46.3854 67.866 46.4548 67.9767 46.5134C68.0767 46.8612 67.9651 47.0947 67.8785 47.4424C67.666 47.3369 67.5967 47.2153 67.4885 47.0098C67.4476 46.7246 67.4971 46.5893 67.6372 46.3411Z" fill="#FEFEFE"/>
<path d="M80.5459 53.9856C80.6502 54.0252 80.7347 54.0627 80.8277 54.1261C81.0367 54.2691 81.035 54.27 81.0781 54.5087L80.845 54.8177C80.6007 54.675 80.402 54.622 80.2896 54.3549L80.5459 53.9856Z" fill="#FEFEFE"/>
<path d="M67.5361 41.5685C67.7244 41.612 67.8179 41.6594 67.9648 41.7852C67.9687 42.1049 67.836 42.2132 67.6576 42.4724L67.3896 42.4374C67.3073 42.1104 67.4357 41.8863 67.5361 41.5685Z" fill="#FEFEFE"/>
<path d="M55.3927 26.9347L55.7926 27.0862C55.9615 27.394 55.9167 27.5952 55.9098 27.9423L55.5142 27.7259C55.3397 27.4396 55.3863 27.2653 55.3927 26.9347Z" fill="#FEFEFE"/>
<path d="M38.8993 40.759C39.0856 40.7737 39.2611 40.8225 39.4418 40.8681C39.5669 41.1117 39.5087 41.2217 39.4591 41.4825L38.881 41.3393L38.7773 41.1391L38.8993 40.759Z" fill="#FEFEFE"/>
<path d="M71.5784 27.599L71.902 27.785C71.9558 28.1002 71.8417 28.1773 71.6758 28.4425C71.5159 28.3935 71.3853 28.3085 71.244 28.2219C71.2259 27.9259 71.3961 27.8207 71.5784 27.599Z" fill="#FEFEFE"/>
<path d="M43.0951 68.4064C43.3558 68.5516 43.4764 68.5882 43.6178 68.861L43.504 69.1734C43.3071 69.16 43.1244 69.1251 42.9317 69.0833C42.8452 68.8037 42.9767 68.664 43.0951 68.4064Z" fill="#FEFEFE"/>
<path d="M63.2001 70.7429C63.2824 70.833 63.2962 70.9691 63.3263 71.0859C63.1807 71.3712 63.1079 71.3906 62.8325 71.5289C62.6877 71.3781 62.6421 71.263 62.5942 71.0614C62.764 70.8412 62.9428 70.8282 63.2001 70.7429Z" fill="#FEFEFE"/>
<path d="M29.8472 69.2262L30.1646 69.3632L30.2401 69.5545L30.0134 70.0259L29.7229 69.8984C29.6247 69.6032 29.727 69.5058 29.8472 69.2262Z" fill="#FEFEFE"/>
<path d="M20.5052 75.6899C21.8999 75.8097 23.2849 75.9179 24.6862 75.9368C25.7808 75.9519 26.8781 75.8886 27.9721 75.939C28.7991 75.9769 29.6001 76.2863 30.4253 76.2725C31.2018 76.2592 31.9782 76.1083 32.7579 76.0821C37.0935 75.9126 41.43 75.8823 45.7674 75.9911C46.2444 75.9993 46.7068 75.8261 47.1717 75.8339C47.7138 75.8429 48.2817 75.9588 48.8328 75.9825C49.8851 76.0273 50.9481 75.9571 51.9977 76.0351C54.8886 76.2492 60.052 77.0994 62.4685 78.5743C63.5879 79.2577 64.8604 80.3871 65.1616 81.719C65.5838 83.5857 65.0392 85.6483 64.0102 87.2207C61.6343 90.8492 54.6426 90.5433 50.8494 90.4524C49.5438 90.4209 48.0831 90.2447 46.8072 90.5118L46.7451 90.5252C46.5245 90.355 46.3311 90.1943 46.0579 90.115L45.9652 90.1706C45.9252 90.1938 45.8838 90.2154 45.845 90.2408C45.2366 90.6385 40.8943 90.4024 40.037 90.3666C39.4792 90.3429 38.6782 90.1499 38.164 90.3175C37.1213 90.6575 37.4062 90.1904 36.6263 90.0469C36.5208 90.152 36.4204 90.252 36.2914 90.3287C35.9531 90.5287 35.7284 89.9189 35.4015 89.8323C35.2435 89.9974 35.1029 90.1072 34.9006 90.2145C33.3349 90.1094 31.4549 90.3335 29.9673 89.8702L29.9309 89.594L29.8027 89.5583C29.7903 89.8284 29.804 89.9543 29.6526 90.1865L29.3049 90.2494C29.1521 90.1693 28.9657 90.0555 28.7942 90.0288C28.4605 89.9775 25.2872 89.9633 24.8157 89.9948C24.2656 89.9306 23.9761 89.5445 23.4796 89.5173L23.4168 89.5815L23.4378 90.0878L23.2892 90.2387C22.7908 90.1223 20.7238 89.9232 20.4892 89.7474C20.2703 89.3988 20.4617 87.858 20.4623 87.3792C27.7944 87.3623 35.1257 87.4229 42.4564 87.5611C46.2263 87.6623 50.0079 87.814 53.7791 87.7688C55.0446 87.7537 56.3881 87.8188 57.6403 87.6524C59.3217 87.4288 61.0366 86.863 62.4034 85.8522C62.7128 84.182 62.3121 82.8109 61.7683 81.242C60.8948 80.4901 59.7482 79.7757 58.6387 79.4439C57.3296 79.0531 52.9069 78.8152 51.2937 78.7635C50.116 78.7256 43.6216 78.8807 42.9979 78.4248C42.9746 78.4076 42.9528 78.3891 42.9293 78.3723C42.4289 78.0168 42.4445 78.5058 41.5721 78.6037C39.4996 78.8359 37.4099 78.7536 35.3288 78.7954C32.1067 78.8592 28.8712 78.9751 25.6489 78.9604C23.9464 78.9527 22.119 78.5692 20.452 78.8928C20.3263 77.8009 20.4674 76.7771 20.5052 75.6899Z" fill="#FEFEFE"/>
<path d="M27.0876 47.3661C28.6204 47.3915 30.2667 47.3148 31.782 47.4915C32.1787 47.5376 32.4339 47.8952 32.8478 47.9086C32.9447 47.912 33.0938 47.7341 33.1696 47.6669C34.0051 47.4001 36.6953 47.7703 37.6985 47.8159C40.8209 47.959 43.9407 47.9892 47.0682 48.1753C49.2856 48.3076 51.5077 48.6006 53.7233 48.7148C54.8157 48.7712 55.8851 48.536 56.9861 48.6743C57.8143 48.7781 58.963 49.2116 59.7145 49.5843C60.8202 50.1333 61.6673 51.0274 62.0577 52.2093C62.5131 53.5895 62.3404 55.0054 61.6932 56.2869C61.0498 57.5606 60.1738 58.5948 58.8398 59.1812C56.6108 60.1611 54.2982 60.0003 51.9433 60.0977C50.8152 60.1443 49.694 60.261 48.5642 60.2791C46.1913 60.3166 43.8291 60.2067 41.4584 60.1882C40.2937 60.1787 39.136 60.2765 37.9684 60.2554C36.3062 60.2253 34.3248 59.8465 32.7387 60.3705C32.5304 60.2701 32.3189 60.168 32.1009 60.0904C31.6635 59.9348 29.835 60.0262 29.4247 60.2179C29.0758 60.3864 29.0748 60.0964 28.7695 60.0344C28.6196 60.0034 28.3266 60.0689 28.1621 60.0732C27.8069 60.0822 27.2658 60.0839 27.003 59.8327C26.7782 59.3019 26.8901 58.4922 26.9025 57.9127C27.7588 57.9441 28.5967 57.7269 29.4561 57.8054C29.5076 57.8726 29.5666 57.9648 29.6323 58.0174C29.7875 58.1423 29.833 58.0872 30.003 58.032C30.3291 57.9264 30.6777 57.783 31.0137 57.7257C31.806 57.5904 32.7791 57.6942 33.5885 57.6912C34.7178 57.6869 35.8458 57.6261 36.9749 57.6175C39.8494 57.5959 42.7868 57.5847 45.6553 57.7541C47.141 57.842 48.5884 58.1966 50.0875 58.1333C52.5586 58.029 57.0947 57.8847 58.8777 55.8896C59.749 54.9145 59.7291 53.8149 59.6753 52.5928C58.804 51.7953 57.7768 51.2842 56.622 51.03C55.4853 50.7792 54.271 50.8585 53.1128 50.7883C47.7789 50.4815 42.4422 50.2357 37.1029 50.051C34.606 49.9631 32.0379 50.0187 29.5519 49.8278C29.0231 49.7869 27.6024 49.7304 27.2228 49.3719C27.0288 48.7531 27.0925 48.0129 27.0876 47.3661Z" fill="#FEFEFE"/>
<path d="M20.5329 81.6631C22.2638 81.7364 24.0125 81.6584 25.7456 81.6562L33.4905 81.714C35.7624 81.7235 38.0432 81.6886 40.3141 81.7424C42.7083 81.7993 45.101 81.9454 47.4959 81.9833C50.9991 82.0385 54.4669 81.3938 57.8697 82.4805C58.3247 82.6258 58.6458 82.883 58.8647 83.3079C58.856 83.4664 58.8746 83.5642 58.7634 83.6927C58.1244 84.4325 55.592 84.4118 54.6419 84.501C52.6886 84.42 49.862 84.891 48.0802 84.6074C47.9859 84.5006 47.8881 84.3696 47.7678 84.2916C47.6338 84.205 47.5856 84.2451 47.4412 84.28C46.9983 84.3868 46.47 84.5708 46.0171 84.5868C44.8041 84.6294 44.6503 84.08 43.0931 84.4217C42.7705 84.4928 42.5597 84.5066 42.2831 84.3312C42.24 84.1072 42.2059 83.8844 42.1769 83.6586L41.9936 83.6203L41.8208 83.7836L41.8184 84.2696C41.3128 84.791 40.6701 84.2227 40.0745 84.2899C39.7879 84.3222 39.5109 84.6165 39.1686 84.6389C37.5174 84.7462 34.1168 84.0886 32.688 84.5501C32.262 84.688 32.1383 84.2541 31.809 84.0774L31.4587 84.4709C31.2288 84.5282 31.2303 84.5312 31.0228 84.4179C30.9355 84.189 30.87 83.9637 30.8094 83.7267L30.6653 83.6879C30.5636 83.9189 30.4502 84.0865 30.2923 84.2817C29.5573 84.7751 21.7069 84.4368 20.4518 84.4398C20.5003 83.5892 20.2684 82.4581 20.5329 81.6631Z" fill="#FEFEFE"/>
<path d="M34.0426 52.2835C35.3234 52.1275 36.4281 52.4916 37.6833 52.5179C39.9088 52.5648 42.1445 52.3946 44.3723 52.4205C46.3354 52.4429 48.2861 52.6601 50.2454 52.72C51.8375 52.7686 54.3535 52.4218 55.7905 53.2379C56.0814 53.4029 56.3395 53.6395 56.4153 53.9782C56.508 54.3931 56.3455 54.9192 56.115 55.2644C55.0503 55.8142 50.6935 55.4018 49.337 55.3217C46.6362 55.4139 43.8466 55.2519 41.1428 55.173C38.4305 55.0942 35.7102 55.1584 32.9966 55.1562C31.0255 55.1545 29.0526 55.0563 27.0829 55.1575C26.9498 54.188 26.9511 53.265 26.9653 52.2908C27.2644 52.3795 27.5725 52.4705 27.8856 52.4873C28.7309 52.5338 29.6366 52.3877 30.487 52.3593C31.6722 52.3201 32.859 52.3671 34.0426 52.2835Z" fill="#FEFEFE"/>
<path d="M42.587 72.2857L42.5858 72.2305C42.5797 72.0301 42.5449 71.8604 42.4897 71.6682C42.5571 71.4187 42.6305 71.1266 42.8553 70.9697C42.8707 70.9589 42.8885 70.9516 42.9051 70.943C43.0833 71.1334 43.2698 71.3317 43.2667 71.6109C43.2654 71.7565 43.2051 71.9181 43.1706 72.0594C43.1525 72.1348 43.1573 72.2016 43.1676 72.2775L42.587 72.2857Z" fill="#FEFEFE"/>
<path d="M20.0162 122.615V111.415H24.0962C24.6882 111.415 25.2215 111.537 25.6962 111.783C26.1762 112.023 26.5548 112.369 26.8322 112.823C27.1148 113.271 27.2562 113.801 27.2562 114.415C27.2562 114.687 27.2162 114.961 27.1362 115.239C27.0562 115.516 26.9335 115.767 26.7682 115.991C26.6028 116.209 26.3895 116.372 26.1282 116.479C26.4748 116.564 26.7575 116.719 26.9762 116.943C27.1948 117.167 27.3655 117.431 27.4882 117.735C27.6108 118.033 27.6935 118.34 27.7362 118.655C27.7842 118.964 27.8082 119.252 27.8082 119.519C27.8082 120.111 27.6615 120.639 27.3682 121.103C27.0748 121.567 26.6802 121.935 26.1842 122.207C25.6935 122.479 25.1495 122.615 24.5522 122.615H20.0162ZM21.9682 120.943H24.3522C24.6722 120.943 24.9602 120.865 25.2162 120.711C25.4722 120.556 25.6775 120.343 25.8322 120.071C25.9868 119.799 26.0642 119.489 26.0642 119.143C26.0642 118.844 25.9868 118.561 25.8322 118.295C25.6775 118.028 25.4722 117.812 25.2162 117.647C24.9602 117.481 24.6722 117.399 24.3522 117.399H21.9682V120.943ZM21.9682 115.751H23.8722C24.2668 115.751 24.6028 115.628 24.8802 115.383C25.1628 115.137 25.3042 114.812 25.3042 114.407C25.3042 113.975 25.1628 113.649 24.8802 113.431C24.6028 113.207 24.2668 113.095 23.8722 113.095H21.9682V115.751ZM32.5049 122.823C31.7689 122.823 31.0969 122.633 30.4889 122.255C29.8862 121.876 29.4036 121.369 29.0409 120.735C28.6836 120.095 28.5049 119.388 28.5049 118.615C28.5049 118.028 28.6089 117.481 28.8169 116.975C29.0249 116.463 29.3102 116.015 29.6729 115.631C30.0409 115.241 30.4676 114.937 30.9529 114.719C31.4382 114.5 31.9556 114.391 32.5049 114.391C33.2409 114.391 33.9102 114.58 34.5129 114.959C35.1209 115.337 35.6036 115.847 35.9609 116.487C36.3236 117.127 36.5049 117.836 36.5049 118.615C36.5049 119.196 36.4009 119.74 36.1929 120.247C35.9849 120.753 35.6969 121.201 35.3289 121.591C34.9662 121.975 34.5422 122.276 34.0569 122.495C33.5769 122.713 33.0596 122.823 32.5049 122.823ZM32.5049 120.871C32.8942 120.871 33.2436 120.767 33.5529 120.559C33.8622 120.351 34.1049 120.076 34.2809 119.735C34.4622 119.393 34.5529 119.02 34.5529 118.615C34.5529 118.199 34.4596 117.82 34.2729 117.479C34.0916 117.132 33.8436 116.857 33.5289 116.655C33.2196 116.447 32.8782 116.343 32.5049 116.343C32.1209 116.343 31.7742 116.447 31.4649 116.655C31.1556 116.863 30.9102 117.14 30.7289 117.487C30.5476 117.833 30.4569 118.209 30.4569 118.615C30.4569 119.036 30.5502 119.417 30.7369 119.759C30.9236 120.1 31.1716 120.372 31.4809 120.575C31.7956 120.772 32.1369 120.871 32.5049 120.871ZM41.3018 122.823C40.5658 122.823 39.8938 122.633 39.2858 122.255C38.6831 121.876 38.2004 121.369 37.8378 120.735C37.4804 120.095 37.3018 119.388 37.3018 118.615C37.3018 118.028 37.4058 117.481 37.6138 116.975C37.8218 116.463 38.1071 116.015 38.4698 115.631C38.8378 115.241 39.2644 114.937 39.7498 114.719C40.2351 114.5 40.7524 114.391 41.3018 114.391C42.0378 114.391 42.7071 114.58 43.3098 114.959C43.9178 115.337 44.4004 115.847 44.7578 116.487C45.1204 117.127 45.3018 117.836 45.3018 118.615C45.3018 119.196 45.1978 119.74 44.9898 120.247C44.7818 120.753 44.4938 121.201 44.1258 121.591C43.7631 121.975 43.3391 122.276 42.8538 122.495C42.3738 122.713 41.8564 122.823 41.3018 122.823ZM41.3018 120.871C41.6911 120.871 42.0404 120.767 42.3498 120.559C42.6591 120.351 42.9018 120.076 43.0778 119.735C43.2591 119.393 43.3498 119.02 43.3498 118.615C43.3498 118.199 43.2564 117.82 43.0698 117.479C42.8884 117.132 42.6404 116.857 42.3258 116.655C42.0164 116.447 41.6751 116.343 41.3018 116.343C40.9178 116.343 40.5711 116.447 40.2618 116.655C39.9524 116.863 39.7071 117.14 39.5258 117.487C39.3444 117.833 39.2538 118.209 39.2538 118.615C39.2538 119.036 39.3471 119.417 39.5338 119.759C39.7204 120.1 39.9684 120.372 40.2778 120.575C40.5924 120.772 40.9338 120.871 41.3018 120.871ZM53.5664 122.615H51.3184L49.4944 119.471L48.3744 120.807V122.615H46.4224V110.615H48.3744V117.775L51.0224 114.615H53.5744L50.8304 117.887L53.5664 122.615ZM54.9849 122.615V111.415H62.0089V113.367H56.9369V115.639H60.9609V117.591H56.9369V120.663H62.0089V122.615H54.9849ZM68.4293 120.207L70.1893 121.159C69.8213 121.66 69.3599 122.063 68.8053 122.367C68.2506 122.671 67.6453 122.823 66.9893 122.823C66.2533 122.823 65.5813 122.633 64.9733 122.255C64.3706 121.876 63.8879 121.369 63.5253 120.735C63.1679 120.095 62.9893 119.388 62.9893 118.615C62.9893 118.028 63.0933 117.481 63.3013 116.975C63.5093 116.463 63.7946 116.015 64.1573 115.631C64.5253 115.241 64.9519 114.937 65.4373 114.719C65.9226 114.5 66.4399 114.391 66.9893 114.391C67.6453 114.391 68.2506 114.543 68.8053 114.847C69.3599 115.151 69.8213 115.559 70.1893 116.071L68.4293 117.015C68.2426 116.801 68.0213 116.636 67.7653 116.519C67.5146 116.401 67.2559 116.343 66.9893 116.343C66.6053 116.343 66.2586 116.449 65.9493 116.663C65.6399 116.871 65.3946 117.148 65.2133 117.495C65.0319 117.836 64.9413 118.209 64.9413 118.615C64.9413 119.015 65.0319 119.388 65.2133 119.735C65.3946 120.076 65.6399 120.351 65.9493 120.559C66.2586 120.767 66.6053 120.871 66.9893 120.871C67.2666 120.871 67.5306 120.812 67.7813 120.695C68.0319 120.572 68.2479 120.409 68.4293 120.207ZM78.7035 117.559V122.615H76.7515V118.071C76.7515 117.756 76.6742 117.471 76.5195 117.215C76.3649 116.953 76.1569 116.748 75.8955 116.599C75.6395 116.444 75.3542 116.367 75.0395 116.367C74.7249 116.367 74.4369 116.444 74.1755 116.599C73.9195 116.748 73.7142 116.953 73.5595 117.215C73.4102 117.471 73.3355 117.756 73.3355 118.071V122.615H71.3835L71.3755 110.615H73.3275L73.3355 115.327C73.6075 115.039 73.9329 114.812 74.3115 114.647C74.6902 114.476 75.0982 114.391 75.5355 114.391C76.1169 114.391 76.6475 114.535 77.1275 114.823C77.6075 115.105 77.9889 115.487 78.2715 115.967C78.5595 116.441 78.7035 116.972 78.7035 117.559ZM83.6612 122.823C82.9252 122.823 82.2532 122.633 81.6452 122.255C81.0425 121.876 80.5598 121.369 80.1972 120.735C79.8398 120.095 79.6612 119.388 79.6612 118.615C79.6612 118.028 79.7652 117.481 79.9732 116.975C80.1812 116.463 80.4665 116.015 80.8292 115.631C81.1972 115.241 81.6238 114.937 82.1092 114.719C82.5945 114.5 83.1118 114.391 83.6612 114.391C84.3972 114.391 85.0665 114.58 85.6692 114.959C86.2772 115.337 86.7598 115.847 87.1172 116.487C87.4798 117.127 87.6612 117.836 87.6612 118.615C87.6612 119.196 87.5572 119.74 87.3492 120.247C87.1412 120.753 86.8532 121.201 86.4852 121.591C86.1225 121.975 85.6985 122.276 85.2132 122.495C84.7332 122.713 84.2158 122.823 83.6612 122.823ZM83.6612 120.871C84.0505 120.871 84.3998 120.767 84.7092 120.559C85.0185 120.351 85.2612 120.076 85.4372 119.735C85.6185 119.393 85.7092 119.02 85.7092 118.615C85.7092 118.199 85.6158 117.82 85.4292 117.479C85.2478 117.132 84.9998 116.857 84.6852 116.655C84.3758 116.447 84.0345 116.343 83.6612 116.343C83.2772 116.343 82.9305 116.447 82.6212 116.655C82.3118 116.863 82.0665 117.14 81.8852 117.487C81.7038 117.833 81.6132 118.209 81.6132 118.615C81.6132 119.036 81.7065 119.417 81.8932 119.759C82.0798 120.1 82.3278 120.372 82.6372 120.575C82.9518 120.772 83.2932 120.871 83.6612 120.871Z" fill="#FEFEFE"/>
</svg>
