<svg width="24" height="24" viewBox="0 0 24 24" fill="none" xmlns="http://www.w3.org/2000/svg">
<path d="M12.9511 2.927C12.6521 2.006 11.3491 2.006 11.0491 2.927L9.5301 7.601C9.46467 7.80165 9.33744 7.97646 9.16662 8.1004C8.9958 8.22434 8.79014 8.29106 8.5791 8.291H3.6651C2.6971 8.291 2.2931 9.531 3.0771 10.101L7.0531 12.989C7.22389 13.1132 7.351 13.2882 7.4162 13.489C7.48141 13.6899 7.48137 13.9062 7.4161 14.107L5.8981 18.781C5.5981 19.702 6.6531 20.469 7.4361 19.899L11.4121 17.011C11.583 16.8868 11.7888 16.8199 12.0001 16.8199C12.2114 16.8199 12.4172 16.8868 12.5881 17.011L16.5641 19.899C17.3471 20.469 18.4021 19.703 18.1021 18.781L16.5841 14.107C16.5188 13.9062 16.5188 13.6899 16.584 13.489C16.6492 13.2882 16.7763 13.1132 16.9471 12.989L20.9231 10.101C21.7061 9.531 21.3041 8.291 20.3351 8.291H15.4201C15.2092 8.29085 15.0038 8.22403 14.8332 8.10011C14.6625 7.97618 14.5355 7.80149 14.4701 7.601L12.9511 2.927Z" stroke="black" stroke-width="2" stroke-linecap="round" stroke-linejoin="round"/>
</svg>
